<svg xmlns="http://www.w3.org/2000/svg" version="1.1" xmlns:xlink="http://www.w3.org/1999/xlink" xmlns:svgjs="http://svgjs.dev/svgjs" width="1500" height="1500" viewBox="0 0 1500 1500"><g transform="matrix(1,0,0,1,-0.7499999999998863,-0.7499065657185611)"><svg viewBox="0 0 280 280" data-background-color="#ff8000" preserveAspectRatio="xMidYMid meet" height="1500" width="1500" xmlns="http://www.w3.org/2000/svg" xmlns:xlink="http://www.w3.org/1999/xlink"><g id="tight-bounds" transform="matrix(1,0,0,1,0.13999999999998636,0.1400174410658792)"><svg viewBox="0 0 279.72 279.72" height="279.72" width="279.72"><g><svg viewBox="0 0 279.72 279.72" height="279.72" width="279.72"><g><svg viewBox="0 0 279.72 279.72" height="279.72" width="279.72"><g id="textblocktransform"><svg viewBox="0 0 279.72 279.72" height="279.72" width="279.72" id="textblock"><g><svg viewBox="0 0 279.72 279.72" height="279.72" width="279.72"><g transform="matrix(1,0,0,1,100.30161823329979,73.92936372216631)"><svg viewBox="0 0 79.11676353340044 131.8612725556674" height="131.8612725556674" width="79.11676353340044"><g><svg xmlns="http://www.w3.org/2000/svg" xmlns:xlink="http://www.w3.org/1999/xlink" version="1.1" x="0" y="0" viewBox="14 2 36 60" style="enable-background:new 0 0 64 64;" xml:space="preserve" height="131.8612725556674" width="79.11676353340044" class="icon-xg-0" data-fill-palette-color="accent" id="xg-0"><path d="M45 36h-3v-4H14v25c0 2.8 2.2 5 5 5h18c2.8 0 5-2.2 5-5v-3h3c2.8 0 5-2.2 5-5v-8C50 38.2 47.8 36 45 36zM23.9 54.5l-1.7 1L17.8 48l4.3-7.5 1.7 1L20.2 48 23.9 54.5zM27 55.3L25 54.7l4-14 1.9 0.5L27 55.3zM33.9 55.5l-1.7-1 3.7-6.5-3.7-6.5 1.7-1 4.3 7.5L33.9 55.5zM48 49c0 1.7-1.3 3-3 3h-3V38h3c1.7 0 3 1.3 3 3V49z" fill="#000000" data-fill-palette-color="accent"></path><g fill="#000000" data-fill-palette-color="accent"><path d="M38 30h-2v-2c0-1.1-0.9-2-2-2H20c-2.2 0-4-1.8-4-4s1.8-4 4-4h14c1.1 0 2-0.9 2-2s-0.9-2-2-2H20c-2.2 0-4-1.8-4-4s1.8-4 4-4h14c1.1 0 2-0.9 2-2V2h2v2c0 2.2-1.8 4-4 4H20c-1.1 0-2 0.9-2 2s0.9 2 2 2h14c2.2 0 4 1.8 4 4s-1.8 4-4 4H20c-1.1 0-2 0.9-2 2s0.9 2 2 2h14c2.2 0 4 1.8 4 4V30z" fill="#000000" data-fill-palette-color="accent"></path></g></svg></g></svg></g><g><path d="M26.009 96.336l-2.428-0.822-1.631 4.82 9.768 3.306 0.754-2.227 2.328 0.788-2.431 7.184-2.328-0.787 0.729-2.154-20.986-7.101-0.729 2.154-2.318-0.785 5.426-16.037 6.324 2.14-0.788 2.327-4.005-1.355-2.961 8.752 8.889 3.008 1.631-4.82-2.428-0.822 0.787-2.328 7.185 2.431z" fill="#000000" data-fill-palette-color="primary"></path><path d="M43.749 77.782l1.115-1.982 2.142 1.206-6.159 10.943c-0.604 1.074-1.223 1.68-1.856 1.82v0c-0.563 0.12-1.368-0.115-2.413-0.703v0l-1.163-0.655c-0.753-0.424-1.215-0.806-1.387-1.147v0c-0.244-0.5-0.388-1.395-0.431-2.685v0l-0.414-9.346-2.327-1.31-3.468 6.164 1.821 1.024-1.134 2.015-3.962-2.23 4.422-7.857c0.604-1.074 1.257-1.694 1.958-1.862 0.704-0.173 1.498-0.012 2.38 0.484v0zM42.298 80.362l-6.602-3.715 0.407 8.843 2.513 1.414z" fill="#000000" data-fill-palette-color="primary"></path><path d="M37.254 59.897l4.354-5.009 1.855 1.612-1.162 1.336 12.276 5.888-7.497-11.386-1.155 1.329-1.855-1.612 4.379-5.039 1.855 1.612-1.422 1.636 8.902 13.516-2.627 3.024-14.652-6.901-1.396 1.606z" fill="#000000" data-fill-palette-color="primary"></path><path d="M60.026 36.818l9.933 12.01 1.812-1.498 1.566 1.893-5.845 4.834-1.566-1.893 1.752-1.449-8.367-10.117-1.752 1.449-1.566-1.893zM54.655 32.647c0.393-0.325 0.842-0.454 1.349-0.387 0.507 0.066 0.925 0.298 1.254 0.696 0.329 0.398 0.47 0.842 0.424 1.331-0.046 0.49-0.271 0.902-0.674 1.235-0.398 0.329-0.842 0.47-1.332 0.424-0.49-0.046-0.9-0.268-1.229-0.666-0.329-0.398-0.473-0.856-0.433-1.374 0.04-0.518 0.254-0.938 0.641-1.259z" fill="#000000" data-fill-palette-color="primary"></path><path d="M70.432 18.87l12.883 20.959 2.002-1.231 1.287 2.094-6.461 3.971-1.287-2.093 1.937-1.191-11.602-18.874-1.937 1.191-1.281-2.085z" fill="#000000" data-fill-palette-color="primary"></path><path d="M104.552 30.364l2.115-0.834 0.901 2.286-11.683 4.605c-1.146 0.452-2.009 0.532-2.588 0.24v0c-0.512-0.262-0.989-0.952-1.428-2.067v0l-0.49-1.243c-0.317-0.804-0.434-1.392-0.352-1.764v0c0.126-0.542 0.579-1.327 1.359-2.355v0l5.576-7.512-0.979-2.484-6.579 2.593 0.766 1.944-2.151 0.848-1.667-4.23 8.388-3.307c1.146-0.452 2.044-0.521 2.694-0.209 0.656 0.31 1.17 0.936 1.541 1.878v0zM101.798 31.449l-2.778-7.047-5.264 7.118 1.057 2.682z" fill="#000000" data-fill-palette-color="primary"></path><path d="M132.212 0.236l12.885-0.234c1.586-0.029 2.662 0.252 3.227 0.841v0c0.565 0.59 0.864 1.774 0.897 3.554v0l0.048 2.641c0.025 1.367-0.247 2.369-0.816 3.005v0c-0.284 0.321-0.656 0.628-1.116 0.92-0.465 0.299-1.033 0.657-1.702 1.076v0l-7.88 5.126 0.137 7.574 2.351-0.043 0.044 2.457-7.583 0.138-0.045-2.457 2.273-0.041-0.401-22.112-2.273 0.041zM146.655 8.527l-0.111-6.065-9.053 0.165 0.211 11.656z" fill="#000000" data-fill-palette-color="primary"></path><path d="M171.668 12.581v0c1.841 0.365 2.582 1.455 2.222 3.271v0l-0.625 3.15-2.865-0.568 0.678-3.425-6.217 2.407-1.85 9.338 1.736 0.344-0.477 2.41-6.833-1.354 0.478-2.41 2.23 0.442 2.559-12.916-2.23-0.442 0.478-2.41 5.096 1.01-0.619 3.122 4.898-1.87c0.426-0.159 0.873-0.192 1.341-0.099z" fill="#000000" data-fill-palette-color="primary"></path><path d="M187.257 36.942l-6.194-2.489c-1.137-0.457-1.833-1.042-2.088-1.756-0.264-0.711-0.207-1.536 0.17-2.476v0l4.332-10.781c0.358-0.892 0.853-1.527 1.485-1.906 0.634-0.385 1.577-0.326 2.827 0.177v0l6.194 2.489c1.227 0.493 1.942 1.1 2.146 1.821 0.206 0.715 0.13 1.519-0.228 2.411v0l-4.331 10.781c-0.377 0.94-0.904 1.576-1.581 1.909-0.684 0.337-1.595 0.277-2.732-0.18zM186.469 19.829l-4.894 12.182 7.002 2.813 4.894-12.182z" fill="#000000" data-fill-palette-color="primary"></path><path d="M211.447 29.519l-11.451 18.965c-0.523 0.867-1.134 1.398-1.832 1.595-0.693 0.199-1.564-0.018-2.613-0.651v0l-3.769-2.275 1.285-2.129 4.075 2.46 10.501-17.392-1.946-1.175 1.27-2.103zM213.329 22.902c0.436 0.263 0.707 0.645 0.811 1.146 0.105 0.5 0.024 0.971-0.242 1.413-0.267 0.442-0.639 0.722-1.118 0.839-0.478 0.118-0.941 0.042-1.388-0.227-0.442-0.267-0.722-0.639-0.839-1.118-0.118-0.478-0.044-0.938 0.222-1.379 0.267-0.442 0.651-0.729 1.154-0.863 0.503-0.134 0.969-0.07 1.4 0.189z" fill="#000000" data-fill-palette-color="primary"></path><path d="M210.963 48.065l7.6-9.119c1.528-1.833 3.245-1.955 5.153-0.365v0l4.682 3.902c0.907 0.756 1.417 1.479 1.529 2.169 0.113 0.69-0.223 1.506-1.007 2.448v0l-2.149 2.579-12.062-1.591-1.636 1.962 5.708 4.757 1.338-1.605 2.192 1.827-1.226 1.472c-0.462 0.555-1.03 0.888-1.702 0.999-0.672 0.111-1.407-0.165-2.205-0.83v0l-5.678-4.732c-0.798-0.665-1.202-1.338-1.214-2.019-0.012-0.681 0.214-1.299 0.677-1.854zM221.479 39.966l-4.894 5.871 8.657 1.157 1.914-2.296z" fill="#000000" data-fill-palette-color="primary"></path><path d="M236.133 70.987l-3.503 2.899-5.73-6.924c-1.106-1.337-1.244-2.52-0.413-3.551v0c0.236-0.321 0.521-0.62 0.854-0.895v0l9.011-7.456c0.775-0.641 1.562-0.924 2.361-0.849 0.799 0.075 1.567 0.558 2.303 1.447v0l5.545 6.701-3.533 2.923-1.567-1.893 1.61-1.332-4.323-5.225-10.115 8.369 4.324 5.225 1.61-1.332z" fill="#000000" data-fill-palette-color="primary"></path><path d="M259.328 70.237l1.417 2.432-5.676 3.306 1.47 2.525-2.249 1.31-1.47-2.525-11.219 6.534 1.723 2.959-2.123 1.237-1.524-2.617c-0.545-0.936-0.706-1.776-0.482-2.518 0.219-0.739 0.922-1.455 2.109-2.146v0l10.099-5.882-1.344-2.307 2.249-1.31 1.344 2.307z" fill="#000000" data-fill-palette-color="primary"></path><path d="M253.802 104.474l-2.084 0.806c-1.973 0.763-3.333 0.179-4.08-1.753v0l-3.147-8.139 5.081-1.964 0.882 2.283-2.788 1.078 2.341 6.055 2.788-1.078 1.334-6.853c0.145-0.699 0.249-1.296 0.313-1.791 0.073-0.491 0.169-0.913 0.29-1.264v0c0.252-0.671 0.76-1.155 1.524-1.45v0l1.922-0.743c0.944-0.365 1.656-0.457 2.134-0.275v0c0.93 0.332 1.626 1.093 2.086 2.284v0l3.032 7.842-5.053 1.953-0.886-2.292 2.761-1.067-2.341-6.055-2.824 1.092-1.353 7.099c-0.113 0.583-0.203 1.102-0.27 1.556-0.072 0.457-0.172 0.851-0.299 1.184v0c-0.253 0.741-0.707 1.238-1.363 1.492z" fill="#000000" data-fill-palette-color="primary"></path><path d="M21.708 188.619l0.719 2.157-2.359 0.785-1.654-4.965 3.938-1.312-5.708-4.676c-0.595-0.583-0.998-1.19-1.208-1.82-0.208-0.624-0.149-1.201 0.178-1.732 0.333-0.532 0.796-0.897 1.389-1.095v0l11.978-3.989c1.052-0.351 1.825-0.428 2.319-0.232v0c0.891 0.308 1.535 1.056 1.93 2.243v0l2.302 6.911 6.223-2.073-0.752-2.258 2.332-0.776 1.687 5.067zM25.087 184.373l8.114-2.702-2.415-7.251-12.63 4.206z" fill="#000000" data-fill-palette-color="secondary"></path><path d="M30.464 206.055l10-6.395c2.005-1.282 3.676-0.877 5.015 1.215v0l3.283 5.135c0.636 0.994 0.906 1.836 0.811 2.524-0.101 0.692-0.67 1.37-1.708 2.034v0l-2.82 1.804-11.018-5.162-2.152 1.376 4.003 6.26 1.761-1.126 1.537 2.404-1.613 1.032c-0.609 0.389-1.25 0.535-1.925 0.438-0.674-0.097-1.291-0.583-1.851-1.457v0l-3.982-6.227c-0.559-0.875-0.742-1.639-0.546-2.292 0.195-0.653 0.597-1.174 1.205-1.563zM42.936 201.513l-6.447 4.123 7.91 3.715 2.519-1.611z" fill="#000000" data-fill-palette-color="secondary"></path><path d="M58.813 218.428l4.874 4.505-1.668 1.804-1.3-1.201-6.26 12.091 11.61-7.147-1.293-1.195 1.668-1.805 4.902 4.531-1.667 1.804-1.592-1.47-13.782 8.485-2.941-2.718 7.344-14.434-1.563-1.445z" fill="#000000" data-fill-palette-color="secondary"></path><path d="M74.443 250.637l5.773-10.372c1.157-2.079 2.821-2.515 4.991-1.307v0l5.325 2.964c1.031 0.574 1.668 1.187 1.911 1.839 0.239 0.657 0.06 1.524-0.54 2.6v0l-1.628 2.925-12.147 0.679-1.242 2.231 6.492 3.614 1.016-1.826 2.494 1.388-0.932 1.674c-0.351 0.631-0.847 1.064-1.487 1.298-0.64 0.234-1.413 0.099-2.32-0.406v0l-6.458-3.595c-0.907-0.505-1.43-1.091-1.568-1.758-0.138-0.667-0.031-1.317 0.32-1.948zM83.271 240.725l-3.722 6.687 8.726-0.48 1.454-2.612z" fill="#000000" data-fill-palette-color="secondary"></path><path d="M114.229 241.384l-7.057 23.568 2.252 0.675-0.704 2.354-7.266-2.176 0.704-2.354 2.178 0.652 6.352-21.214-2.178-0.652 0.705-2.354z" fill="#000000" data-fill-palette-color="secondary"></path><path d="M136.089 271.744l-6.658-0.488c-1.222-0.089-2.067-0.436-2.533-1.039-0.461-0.596-0.654-1.399-0.58-2.409v0l0.848-11.588c0.07-0.958 0.349-1.714 0.835-2.267 0.487-0.559 1.403-0.79 2.748-0.692v0l6.657 0.488c1.319 0.097 2.185 0.457 2.598 1.082 0.414 0.619 0.586 1.407 0.516 2.366v0l-0.849 11.588c-0.074 1.01-0.385 1.776-0.934 2.299-0.543 0.529-1.426 0.749-2.648 0.66zM130.135 255.68l-0.959 13.094 7.526 0.551 0.959-13.094z" fill="#000000" data-fill-palette-color="secondary"></path><path d="M160.173 259.071l1.47 8.455 7.54-1.312-2.293-13.182zM158.491 279.72l-0.419-2.411 2.202-0.383-3.79-21.789-2.24 0.39-0.428-2.46 5.157-0.896 0.704 4.05 5.475-4.939c0.51-0.455 1.083-0.738 1.718-0.848 0.642-0.112 1.238-0.012 1.79 0.297 0.557 0.303 0.901 0.832 1.032 1.588v0l2.17 12.477c0.19 1.093 0.164 1.867-0.077 2.321v0c-0.463 0.84-1.31 1.367-2.543 1.581v0l-7.177 1.249 1.125 6.471 2.345-0.407 0.419 2.411z" fill="#000000" data-fill-palette-color="secondary"></path><path d="M200.508 236.03v0c1.669-0.859 2.927-0.465 3.774 1.181v0l6.024 11.708 2.056-1.058 1.124 2.185-6.194 3.187-1.124-2.185 1.54-0.793-6.139-11.931-3.995 6.679 4.258 8.275 1.574-0.81 1.124 2.185-5.738 2.953-1.124-2.186 1.54-0.792-0.041-0.142-6.09-11.837-4.002 6.726 4.257 8.276 1.575-0.81 1.124 2.185-6.194 3.187-1.124-2.185 2.021-1.04-6.023-11.709-2.022 1.041-1.106-2.151 4.619-2.377 1.572 3.054 3.272-5.546c0.235-0.389 0.567-0.695 0.997-0.915v0c1.663-0.856 2.918-0.461 3.765 1.185v0l0.447 0.869 3.264-5.498c0.235-0.389 0.565-0.693 0.989-0.911z" fill="#000000" data-fill-palette-color="secondary"></path><path d="M225.964 236.853l-8.213-8.571c-1.647-1.718-1.574-3.436 0.219-5.154v0l4.401-4.217c0.852-0.817 1.625-1.245 2.319-1.285 0.699-0.035 1.474 0.392 2.327 1.281v0l2.316 2.417-2.927 11.809 1.767 1.844 5.364-5.141-1.446-1.508 2.061-1.975 1.325 1.383c0.5 0.522 0.768 1.123 0.804 1.803 0.036 0.68-0.321 1.38-1.072 2.098v0l-5.336 5.114c-0.75 0.718-1.464 1.045-2.142 0.981-0.678-0.065-1.267-0.358-1.767-0.879zM219.09 225.498l5.294 5.525 2.11-8.48-2.068-2.159z" fill="#000000" data-fill-palette-color="secondary"></path><path d="M239.173 195.203v0c0.975-1.596 2.253-1.911 3.832-0.946v0l11.234 6.867 1.206-1.973 2.097 1.281-3.633 5.944-2.096-1.282 0.903-1.478-11.449-6.998 0.103 8.477 7.602 4.646 0.923-1.51 2.097 1.281-3.633 5.944-2.096-1.282 1.185-1.94-11.234-6.867-1.186 1.94-2.064-1.261 2.71-4.433 3.203 1.958-0.08-7.067c-0.002-0.455 0.123-0.888 0.376-1.301z" fill="#000000" data-fill-palette-color="secondary"></path><path d="M241.689 174.228l0.87-2.678 6.238 2.027 0.903-2.779 2.475 0.804-0.902 2.779 12.347 4.011 1.059-3.257 2.337 0.759-0.936 2.88c-0.335 1.031-0.854 1.71-1.557 2.037-0.697 0.33-1.699 0.282-3.005-0.142v0l-11.115-3.611-0.825 2.54-2.475-0.804 0.825-2.54z" fill="#000000" data-fill-palette-color="secondary"></path><path d="M8.753 140.377c0-5.709 4.628-10.337 10.337-10.336 5.709 0 10.337 4.628 10.336 10.336 0 5.709-4.628 10.337-10.336 10.337-5.709 0-10.337-4.628-10.337-10.337z" fill="#000000" data-fill-palette-color="primary"></path><path d="M252.31 140.377c0-5.709 4.628-10.337 10.337-10.336 5.709 0 10.337 4.628 10.336 10.336 0 5.709-4.628 10.337-10.336 10.337-5.709 0-10.337-4.628-10.337-10.337z" fill="#000000" data-fill-palette-color="primary"></path></g></svg></g></svg></g></svg></g></svg></g><defs></defs></svg><rect width="279.72" height="279.72" fill="none" stroke="none" visibility="hidden"></rect></g></svg></g></svg>